<mxfile host="app.diagrams.net" agent="Mozilla/5.0 (Windows NT 10.0; Win64; x64) AppleWebKit/537.36 (KHTML, like Gecko) Chrome/130.0.0.0 Safari/537.36" version="24.8.3">
  <diagram id="C5RBs43oDa-KdzZeNtuy" name="Page-1">
    <mxGraphModel dx="2339" dy="597" grid="1" gridSize="10" guides="1" tooltips="1" connect="1" arrows="1" fold="1" page="1" pageScale="1" pageWidth="827" pageHeight="1169" math="0" shadow="0">
      <root>
        <mxCell id="WIyWlLk6GJQsqaUBKTNV-0" />
        <mxCell id="WIyWlLk6GJQsqaUBKTNV-1" parent="WIyWlLk6GJQsqaUBKTNV-0" />
        <UserObject label="" plantUmlData="{&#xa;  &quot;data&quot;: &quot;@startuml\n\nclass App {\n    +langs_list: List[str]\n    +langs_dict: Dict[str, str]\n    +main_interface: gr.Blocks\n    --\n    +encode_image(image_path: str) : str\n}\n\nclass OCR {\n    +ocr_with_paddle(img: Image) : Tuple[str, str]\n}\n\nclass TranslateSpeak {\n    -output_path: str = &#39;Audio/output.wav&#39;\n    -translate_path: str = &#39;Audio/translate.wav&#39;\n    --\n    +get_lang(lang: str) : str\n    +audio_streaming(txt: str, lang: str, to: int) : str\n    +translate_txt(lang: str, text: str) : Tuple[str, str]\n}\n\nclass PaddleOCR {\n    +ocr(img: Image) : List\n}\n\nclass GoogleTranslator {\n    +get_supported_languages(as_dict: bool) : Union[List[str], Dict[str, str]]\n    +translate(text: str, source: str, target: str) : str\n}\n\nclass gTTS {\n    +save(output_path: str) : None\n}\n\nApp --&gt; OCR : \&quot;uses\&quot;\nApp --&gt; TranslateSpeak : \&quot;uses\&quot;\nOCR --&gt; PaddleOCR : \&quot;invokes\&quot;\nTranslateSpeak --&gt; GoogleTranslator : \&quot;uses\&quot;\nTranslateSpeak --&gt; gTTS : \&quot;uses\&quot;\n\n@enduml\n&quot;,&#xa;  &quot;format&quot;: &quot;png&quot;&#xa;}" id="w0N8NdeP7dXzM01GDiw2-0">
          <mxCell style="shape=image;noLabel=1;verticalAlign=top;aspect=fixed;imageAspect=0;image=data:image/png,iVBORw0KGgoAAAANSUhEUgAABGMAAAHXCAIAAACXrACXAAAAKnRFWHRjb3B5bGVmdABHZW5lcmF0ZWQgYnkgaHR0cHM6Ly9wbGFudHVtbC5jb212zsofAAACF2lUWHRwbGFudHVtbAABAAAAeJx9U11vmzAUffevuOpLqRayNI2qCWlTP7JVy5K1akhfqgp5cEutGBv5g26a+t9rkwAJi8aDEZxzru89Pr7QhipjC05STrWGy7KEvwTc84FTkeuEM20imLv1URv1tAtlLHXQ1K0eGkCHF5SJhAmD6pmmGEGuhldcpmtdw2G4YaFIZYYJK2iOQb0mJTUvkS90AvWLvJFtY7fX901jMlXJKzMvjp1l3EvzCL57vVfFtuS401BbIVZUaE4NLkuk622xUFpTWtNtDJ/h+NJmTH7cIMNXWh1vqKYpcIjdgjuC7Zw5msQ7Fvhlb7oapl6fuE+kBXMs89vU6ABa/gCMjMAZuifs+nGSYJeM2xL/9eOudm/f156X/tg7wY2UOcfGRqkanZ9P27KUymBWT2qdXge0icgvKbkvtxJMisc2S4Nedp56YwXtHA6XVvkkbeajyu15OCd5HC+bxjStMOgfsFf8lAK9xKc9DL/U4YrgyGrUR+3PXl5a3JM93vnnICYqufZoT+WJ//jWljpArvtvCRcoMn85yZ2z1awWc6hQaecinA7Ho/FkOAmW1Lhbq2B0DqeT6OwsGo/gZhGDh0/IjFYU7q0wrHDu3ZYoZtMfzQ/4KiqmpChQGDJ7WHSE80l4xQwsUbn94GFBpvhMLTdO4e4s80lbxd/CT2S+Pe0IUJBr6eqqPw5bkncT02VNwmh5MgAAcXNJREFUeF7s3XlwFVX+/3/+oD5/fKo+H4r6fWoKQa84miCQjRAiYQsQEgcdFBEHiQwiiLjgMqAgwzYoCCqi6CCDG7giO6ISl7B+HBdccRwRVEoFBJElV2QLy/zOl/7Q07z7dKfvmtvdz0elUqfPOX3O6c4l6Rf33r4N/gUAAAAAOFMDWQEAAAAAoUdSAgAAAACJpAQAAAAAEkkJAAAAACSSEgAAAABIJCUAAAAAkEhKCL41a9ZMnjx5CgAP7rvvvunTp0ejUfkPCQCAkCEpIeCWLFmycOHCKADPtm3bNmPGDPlvCQCAkCEpIeCmTZsmLwMB1EX9w5H/lgAACBmSEgKOpATEgaQEAABJCQFHUgLiQFICAICkhIAjKaXavv37lry+9IY7bizp2qFlTssmTZqo7x27drp5xPCVb66sqamRO8APSEoAAJCUEHAkpZR6adn84k4XFXVod/3oYQ8tnPn0qmeXbFyhvquyqinq2K6kS4cVr62QuyHjkZQAACApIeBISimyZ++eobfdkNs2b/zjk1Q6cvpSrXlt8+8Yece+ffvkEMhgJCUAAEhKCDiSUirs3bv3kj6XlvXq8eJ7C+zpSHypPmW9yq/8Q1/Cko+QlAAAICkh4EhKqTD09mEqJi36dLk9F2m/VM8evcpH3jVSDoRMRVICAICkhIAjKSXd4hWLc9vmvfCufDapuHt782vA7QNFq+pfUNSmqqpKDoeMRFICAICkhIAjKSVXTU1N+y4l4r1Jc9c+r9JRgzMNufsGEZbUXqXdSrkbni+QlAAAICkh4EhKybXyzZVFHduJCPS3N55S0ah1Ua4qGF9qs9vlZaKb+irpXFJdXS0HReYhKQEAQFJCwJGUkmv4iFuHjh6mTUrWaOSUlIaNufnuMXfLQW127NgROUUVZBvSgqQEAABJCQFHUkquTl07PbRgZp1J6bFXZhufrSS+1L5lZWVyUBuVkUQBaUZSAgCApISAIyklV6ucVk+vfq7OpOT0pfbNzcuVg9qUlpaKgopMK1euFE80aSuRFCQlAABISgg4klJynX3O2Qs/XhZ3UlL7nnPOOXLQM1mfRzLLjRs3rqysNMqtW7d2qURSkJQAACApIeBISsnVKrd1gs8p5eXlyUHPpE1K3iuRFCQlAABISgg4klJydelW6uV9Ss3OO7vPkL72pDRz0awePXrIQc/UuHFj4wV1iiobldpQpK1EUpCUAAAgKSHgSErJddfouxK5992ICXeOGTNGDnombf7xXomkICkBAEBSQsCRlJKrurr6ok7tRf558u25v2n6G5WOzmvxW+NLlS+/9gp7Uupc2rnOz1PS5h/tW5K0lUgKkhIAACQlBBxJKblqampKu3Ud//gkewpqYFHcXaYp9fXAU9O7d++uRpCDnkmblCK629xpK5EUJCUAAEhKCDiSUtJVVVW1KSp84d0F9izk8vXy+4uLi4vVvnI4b7QvrtNWIilISgAAkJQQcCSlVBg1atTvLu+56NPl9kSk//psxRV9rxg9erQcyDNtKNJWIilISgAAkJQQcCSlVNi3b9/V/a++pPelL75X9zNLCz9YdkXfPv3791d7yYGQqUhKAACQlBBwJKUUUbFn9OjRRe2KJs+Zak9HxtfSz199ZO6jxcXFqicxyV9ISgAAkJQQcCSllKqqqurWrVvnLp1HjB85e+mTz659SaWjF9YteGr53NET7y7tWqpa435vEuoRSQkAAJISAo6klGo1NTXV1dVjxowpLy/Pz89v0qSJ+q7KqkbV13mnO2QmkhIAACQlBBxJCYgDSQkAAJISAo6kBMSBpAQAAEkJAUdSAuJAUgIAgKSEgCMpAXEgKQEAQFJCwKkLvrlz504B4Nm8efNISgAAkJQQcDynBMSBpAQAAEkJAUdSAuJAUgIAgKSEgCMpAXEgKQEAQFJCwJGUgDiQlAAAICkh4EhKQBxISgAAkJQQcCQlIA4kJQAASEoIuKQkpYqKisaNG8vadHGaPRKJyKo0SnB2dURqhEGDBsmGuKhx1Gjas4T4kJQAACApIeCSkpSiCQeDBGlnLy0tlVUOtLt74bJjgrNrK7VS0RN1IikBAEBSQsC5JKVFn60pmn3Lf0/prb6rsmw+U1KuwrOysmSVNwnOHvfuce9opR1EW6mVip6oE0kJAACSEgLOKSmpaHTuQwNe++LdH/f8pL6rsntYElfhO3bsiJymymaflStXikprz9atW9srzZ4uIrYMYH9JnsuY9t2VBg0aZGdny9ozaXeMJmN2Uel994juJJtN1k0kgqQEAABJCQHnlJSKZt+y4h/vmJuqrGos7ZK4Ci8pKTHLZv5R4aGystIom/2tO2orrUM50WYAe4Qwy+aYxht4GjZsGLG9KUjFpPLycmuNnXZeQ4Kzx7279iRrN5EIkhIAACQlBJxTUmo0pfeOPT+Zm6qsaiztkstVuNlk7eNe6f1NPgbt7KLSZUzt7l647Jjg7HHvbt0Ue2knQnxISgAAkJQQcE5JKcHnlLKysiKnma9Ds/Yxy9arebPs8mIzLevITpUuY2p398JlxwRnj3t37WgGlybEiqQEAABJCQHnlJQSfJ+SddMsayu3b9/eqFEjbQYwFBYWyiobbQbQVhrEmNqeyX31nZWX2bWVBvfdXXZ0aUKsSEoAAJCUEHBOSSma2L3vzPcmVVZWuj+nZE1K5l7atzm50GYAUekypnb3RO7oELU1xTp73LtrRzO4NCFWJCUAAEhKCDiXpOSR9r4C5qvFjPuwGZXWK3WznOCr77SzaytdxjSa4viYV+PzYU3Lly+PJmn2yJmpxvvuYkcrlybEiqQEAABJCQGXeFJKkPXy3eVSftOmTWZUMMlOAWIcYBzhTcsIb8E+Y2lGUgIAgKSEgKv3pGR9tsTLC+2ATEBSAgCApISAq/ekBPgRSQkAAJISAo6kBMSBpAQAAEkJAUdSAuJAUgIAgKSEgEtKUqqoqDBvBV6PxB0L6vcGBgnObtxVL1l3dEgb49YRmfBgSDWSEgAAJCUEXFKSUjThYJAUYg3W+4+7i3vx5l3CV65cKZoSnF1bqeW9Z4K8T+S9p3+RlAAAICkh4FySUiKfPBufrKwsWRWLuNeQ+I6VlZXun/vkQju7tlLLe88EeZ/Ie0//IikBAEBSQsA5JSUVjc59aMBrX7z7456f1HdVdg9L4uJY+0mpkdMfRGut1N4lXLu7ltnT+hG3Ud0LAq1jzpo1y9pk3dHUoEGD7OxsWXsm647JnV1UupwQ0TOiO8neJWUi0TOQSEoAAJCUEHBOSalo9i0r/vGOuanKqsbSLomL45KSErNs5h8VHiorK42y2d+6o7bSOpSdObgaWYQTsSTrhzWNHTt2+fLl0dPvq2nYsGHE9qYgFZPKy8utNXbaxWs3Y53dZTTzhGh3155k75IyURzz+g5JCQAAkhICzikpNZrSe8een8xNVVY1lnbJ5eLYbLL2ca+M700+7tfrXlYYq9TNLipdTojLRC57OXHZxftE2iMKGJISAAAkJQScU1JK8DmlrKysyGnmUz3WPmbZepFtll1eAyZox/SyaeXS5C51s4tKlxPifSIvkjKRS1NgkJQAACApIeCcklKC71OybpplbeX27dsbNWqkvTQ3FBYWyioL7ZheNq20Tcl99Z12CoO2SVtpECfE+0Sxinsil6bAICkBAEBSQsA5JaVoYve+0759SJsrrEnJ3Ev7Nict7UQGpyVFLe8UMmiv7GO6o4P93ncJzi4qXU6IxwBTUVHh1GSV+ERR16bAICkBAEBSQsC5JCWPtG/3N1/EZb0lnfUC2iwn+Oo77UTuS4rY7j5nNMXxMa/az1NKyuyRM8OGywkRu4sdrVyaTGmbyO9ISgAAkJQQcIknpQRZr6pdrrA3bdpkXsGbZKcAMQ4wjvDmIg1nzEiJaZio3pGUAAAgKSHg6j0pWZ/EcH+hHRJRUVGxYcMGWYt4kZQAACApIeDqPSkBfkRSAgCApISAIykBcSApAQBAUkLAkZSAOJCUAAAgKSHg6iUpJfiO/wR39057Vzr/qqioEDdS9y5t59wvSEoAAJCUEHD1kpSsdwaPg/fdE7y+T3D3+mLeuzxiu9N33EcU945BRVICAICkhIBzSUoxffJsZkrw+j7B3ZMiKytLVtXFumxxCHEfUdw7BhVJCQAAkhICzikpqWh07kMDXvvi3R/3/KS+q7JTWDKfwTA/8sh4HsPpM0ztrwGLnP7cWNFTK6bdI2de31s/lEmVzT4ed9cekbXS/EhZ7USGBg0aZGdnW2vstHdOjzivU4h4Tkrej8jccdYp9p7uSwoekhIAACQlBJxTUiqafcuKf7xjbqqyqrG0/5t5DS0KJSUlZh/xQUlmT4NKPpWVldomLS+7Gx+B2rBhw4jljUbWHc2y9921R2Q9tLFjxy5fvjzqMJFBxaTy8nJrjZ12d+06tayt4pWKYkftRC5HpMqqxmy17m49OWFAUgIAgKSEgHNKSo2m9N6x5ydzU5VVjaX938zLZXvB5HKBLjbt+9p5391lU7ta91xhpd3dpJ3IO+3uLusUrO9Tsj//5rSpncikKjds2CBubuG+jGAjKQEAQFJCwDklpcSfU8rKykrket2F993FpjVCmE0uM4om7RFpd9dO5J01gZhl7+NYe4q9XDbNsnYi44hEUuLVdwAAhBlJCQHnlJS8v0/JfoVtFLRX4XVuai/TBe+7u2+6VBpcdrcftZW20uDl1Xfbt29v1KhR5BQzgbiMKWjXWeemlyMSr76zKiwslFWBRlICAICkhIBzSkpRz/e+s19hGwXz7S6VlZUZ8pyS9R045vtqXGZ02t16RNp39WgnMni5o4M1KVnv6HBmr38T6cv7CdH21B6R2Wq9o4P2jVshQVICAICkhIBzSUoemdfQomC+NMu4Y5vRpL1TgvZ6XSvW3Y01mD21rxZzmVE7WuTMI9LeKU47kXexvvpOpC/ra//M2bWnTrtO7RFFLLOb8Um7e0iQlAAAICkh4BJPSqlgvcu2SXYKLuvBhurAfYSkBAAASQkBl5lJKeSsz9WE7VVtfkFSAgCApISAIykBcSApAQBAUkLAkZSAOJCUAAAgKSHgSEpAHEhKAACQlBBw6oKvCYAYkZQAACApIeB4TgmIA0kJAACSEgKOpATEgaQEAABJCQFHUgLiQFICAICkhIAjKQFxICkBAEBSQsCRlIA4kJQAACApIeBISkAcSEoAAJCUEHAkJSAOJCUAAEhKCLjMT0qRSERWeRP3jvHZsWNHRUWFqEzzGpKo3leuTqY6pbI2Y5CUAAAgKSHgApyUSktLZVUqadeZ5jUkQqxfezhJ4X1k7z0TF+tcJCUAAEhKCDiXpLToszVFs2/57ym91XdVls3pEuslbNJlZWXJKpv9+/d369ZN1iaPlzUkKAOTUjpzpvdVGUhKAACQlBBwTklJRaOzp/f/02v3Tnh7kvquyk5hadOmTZHTVNmoVOWVK1caleZrqFTB7Dlr1ix7pb2nMYhRqZ3ISUVFRePGja01atPc1ygY07kvQGndurVR6bKAiO46O81rECJ1/QjEa9sitqRk393QoEGD7Oxsa41dUiYyWkWNk3SuKkpSAgCApITAc0pKhY/fNHTZ6MmrJxtfqqxqZKdTrJeYZllFgsrKSlFpXu4rY8eOXb58ubXVWjZ7qkHMsKHt6cJ+7astlJSUmH3MebVzaSu1myanbqlYg2D9EZhjaicaNGiQGqphw4bquyobldqfoEEFkvLycmuNnXUXc9JYJ9LWOEnnqqIkJQAASEoIPKek9F+TLxv/9iQzKamyqpGdTtFeu9dZaaqzp3ulC9HHPo59EG2Te6V20+TUzV4waZvcK7Xq7Om0Nvumdnd3Li+cc5nIvlccU7uwj2+KaVVRkhIAACQlBJ5TUmr92ODBS+40k5IqqxrZ6RTzFWUGo9J6oamtNNXZ0yxrJ3Ih+tgHNwpZWVnmmObzV9aLY7PssgCxaXLqJgpJWYNgbTXL2olEH/um+0RaMb3OzbopuLfGKlmripKUAAAgKSHwnJLSix+/+T/Trhiy9K4Jb09S31VZ1chOp2ivKa2VZjm+ntpKL5yufUVBO9f27dsbNWoUOcW8pHZZgFNTOtcgaMfUVta5KZq8vM7NqrCw0LrpMpGde6tVOlcVJSkBAEBSQuA5JSXlmQ0rLnj4mv+89/fquyrL5tOs7z4y3/uhvc5O8H1K2olcOF37ioJ2LmtKMTu4LMDp3nfpXINgfaeNfXfrRAanpYpy1Nu9E7RviDK4TCRoX/bmJG2rMpCUAAAgKSHgXJKSR9pXNGmvs60947j3nbanlvY9+uY4oqCdS/vKN/cFmPsa6mUNVuZo1p7aiaxN9qWKskcu63SZSHBpik9SVmUgKQEAQFJCwCWelOqR9ZbZJtkpLtZxPI6pLrUrKipkbQI8rsHpJBjf/UudTPcoWL9ISgAAkJQQcL5OSqljffJBvEwrbRJcg9+TUoYjKQEAQFJCwJGUgDiQlAAAICkh4CZPniyvAQHUhaQEAABJCQE3f/78hQsXystAAM62bds2Y8YM+W8JAICQISkh+NasWTN58uT7wuGee+6RVUiG8JzYqVOnTp8+XeUl+Q8JAICQISkBwaEyYbt27Q4dOiQbkBh1StWJXb16tWwAAADBRVICAmL58uW5ubkffvihbEAyfPTRR3l5eUuWLJENAAAgoEhKQBDMnTu3TZs2X331lWxA8mzZsqVt27ZPPvmkbAAAAEFEUgJ8b8aMGR06dPjhhx9kA5Jtx44dnTp1mjp1qmwAAACBQ1ICfOzkyZPjxo3r0aPHzz//LNuQGnv37u3Zs+fIkSOPHz8u2wAAQICQlAC/Onbs2M0339y7d+9ffvlFtiGVfv311379+g0ePPjo0aOyDQAABAVJCfClQ4cODRgw4Nprrz1y5IhsQ+rV1tYOGzasT58+xFQAAIKKpAT4TzQaveyyy2677TZeAFaPTpw4MWbMmB49euzevVu2AQAA/yMpAT7z008/de/efeLEiSdPnpRtSLuHHnqopKTk+++/lw0AAMDnSEqAn3z33Xft27efOXOmbED9efbZZ9u0afPll1/KBgAA4GckJcA3/vnPfxYUFDz//POyAfVtxYoVubm5H3zwgWwAAAC+RVIC/GHDhg3qWvzVV1+VDcgM69evz8nJefPNN2UDAADwJ5IS4ANvv/22ugpft26dbEAm2bhxY35+/ssvvywbAACAD5GUgEy3ZMmSvLy8Tz75RDYg83z77bfFxcWzZs2SDQAAwG9ISkBGe+KJJ9q2bbtlyxbZgEy1c+fOrl27Tpo0iZsTAgDgayQlIHNNnTq1U6dOO3bskA3IbDU1Nb169brtttuOHTsm2wAAgE+QlIBMdOLEibvuuut3v/vd3r17ZRv84NChQwMGDBg4cODhw4dlGwAA8AOSEpBxamtrr7/++j/84Q+//vqrbIN/HDt2bPjw4ZdddllNTY1sAwAAGY+kBGQWlY6uuuqqoUOHqrwk2+A3J0+e/Mtf/lJaWrpz507ZBgAAMhtJCcgge/fu/d3vfjdq1KgTJ07INvjW7Nmzi4qKuC0HAAD+QlICMsX27ds7duw4bdo02QD/M271/uGHH8oGAACQqUhKQEbYsmVL27Ztn3zySdmAoFizZk1OTs5bb70lGwAAQEYiKQH17+OPP87Ly1uyZIlsQLB8+umn+fn58+fPlw0AACDzkJSAerZ27dqcnJxVq1bJBgTRt99+W1xcPHPmTNkAAAAyDEkJqE/Lly/Pzc3l7Suh8tNPP5WVlY0dO5b7dgAAkMlISkC9eeaZZwoLC7/66ivZgKD75Zdf+vTpM2zYMO4FDwBAxiIpAfVj+vTpHTp0+OGHH2QDwuHo0aPXX3993759Dxw4INsAAEAGICkB6XbixIkxY8aUl5f//PPPsg1hYjwSevTosXv3btkGAADqG0kJSKva2tphw4ZdeeWVPJMAwyOPPNK+ffutW7fKBgAAUK9ISkD6HDx4sF+/fkOGDDl69KhsQ4i9+OKLBQUFGzdulA0AAKD+kJSANNm7d2/Pnj1Hjhx5/Phx2YbQe+ONN3JyctatWycbAABAPSEpAemwY8eOTp06TZ06VTYAp23YsCE3N3fp0qWyAQAA1AeSEpByW7Zsadu27RNPPCEbgDNt3ryZhwoAABmCpASk1scff5yXl7dkyRLZAOjs2LGjS5cu995778mTJ2UbAABII5ISkEJr167NyclZtWqVbACc7d+/v1evXrfeeuuxY8dkGwAASBeSEpAqy5Yty8vL+/DDD2UDUJfDhw8PHDjwmmuuOXjwoGwDAABpQVICUuLpp58uLCzcvHmzsVlQUGA2meWff/65+Wnmp9Bu3brVrDQ/Y0fbE8F2/PjxP/3pT5dccsnevXtFEw8nAADSgKQEJN/999/fsWPHbdu2mTXaS1trpbogtle690QYTJ06tVOnTtbH0r9ieZB47wkAAASSEpBMJ06cGDVq1MUXX7xnzx5rvfaCtXfv3malyXtPhMTTTz/dpk2bL7/80qzx/iDx3hMAAAgkJSBpamtrhw4detVVV/3666+iSXvBqn0RVLNmzczKCy+80KUnwmPFihW5ubnvvfeescnDCQCANCApAcmh0pHKSCopqbwk2xwuba3KysqMgrbVyuyJUHnnnXdycnJWrlz5Lx5OAACkBUkJSII9e/ZcfPHFo0aNOnHihGw7xbxgHTx4cLNmzYyy9S0inTt3FoV/WTpoeyJsvvjiC/VAeu6553g4AQCQBiQlIFHbtm3r2LHj/fffLxsszNc7rVq1yv3lUt4rEULfffddhw4d/vKXvxgPBh5OAACkDkkJSMhXX31VWFj49NNPywYgNVS2ufjii++6667jx4/LNgAAkDwkJSB+GzZsyM3NXbZsmWwAUunXX3/t16/fddddd+TIEdkGAACShKQExKm6ujonJ2ft2rWyAUi92tram2++uXfv3tFoVLYBAIBkICkB8Vi8eHFeXt4nn3wiG4B0OXny5IQJE7p167Zz507ZBgAAEkZSAmI2Z86coqKir7/+WjYAaTdr1qx27drxaAQAIOlISkBspkyZ0qVLlx9//FE2APVk0aJFeXl5H330kWwAAAAJICkBXh0/fnzEiBGXXnrpvn37ZBtQr1avXp2Tk1NdXS0bAABAvEhKgCdHjhwZNGhQ//79Dx48KNuADPDJJ5/k5+cvWLBANgAAgLiQlIC6RaPRK6644uabb66trZVtQMb45ptv2rVr99hjj8kGAAAQO5ISUIfdu3eXlZWNGzfu5MmTsg3IMLt27erevfuECRN4uAIAkCCSEuDmu+++a9++/SOPPCIbgEwVjUYvv/zyW2655dixY7INAAB4RlICHH3xxRcFBQXPP/+8bAAy2+HDh6+99tprrrnm0KFDsg0AAHhDUgL03nvvvdzc3Ndff102AH5w/Pjx22+/vVevXjU1NbINAAB4QFICNKqqqnJycv7+97/LBsBX7rnnntLS0p07d8oGAABQF5ISIL300ksFBQWff/65bAB86PHHH2/Xrt23334rGwAAgCuSEnCGxx577KKLLtq6datsAHxrwYIF+fn5n332mWwAAADOSErA/zl58uTEiRO7d+++a9cu2Qb43FtvvZWTk7N+/XrZAAAAHJCUgP/n2LFjw4cPv+yyy6LRqGwDAuGDDz7Izc1dsWKFbAAAADokJeBfhw4dGjBgwMCBAw8fPizbgAD58ssv27RpM2/ePNkAAABsSEoIu5qaml69et122218TCfC4Pvvv+/QocP06dNlAwAAOBNJCaG2c+fO0tLSSZMmnTx5UrYBAfXzzz+Xl5ePGTPmxIkTomnLli2iBgCA0CIpIby+/fbbdu3azZo1SzYAQXfgwIErr7xy2LBhtbW11vqRI0daNwEACDOSEkJq48aN+fn5L7/8smwAwuHo0aNDhgzp16/fr7/+alY2b958z549ll4AAIQXSQlhtH79+pycnDfffFM2AGFy/PjxO++8s2fPnnv37jVqmjRpMmPGjDN7AQAQUiQlhM6KFStyc3M/+OAD2QCE0tSpUzt16rR9+/Z/nUpKrVq1Onr0qOwEAED4kJQQLs8++2ybNm2+/PJL2QCE2JNPPtm2bdvNmzerpJSXlzd//nzZAwCA8CEpIURmzJhRUlLy/fffywYg9JYuXZqbm6uSUrNmzTp16iSbAQAIH5ISQuHEiRN//vOfe/TosXv3btkG4JTVq1c3OSUnJ2fdunWyGQCAkCEpIfhqa2tvvPHGPn36/PLLL7INCKUDBw4sWrTo2muvjUQiRjqyOv/886+++mq5DwAAIUNSQsAdPHiwX79+1113HW9SB+xUZLr//vsvuuiipk2bWsNSdnY2n0ILAAg5khKCbN++fZdccsnIkSOPHz8u2wBY/PLLL1OnTi0uLjYi029/+1s+hRYAEHIkJQTWjz/+2Llz5/vuu082AHBWU1MzZcqUoqKi888/n0+hBQCEGUkJwfT111+rS70nnnhCNiCDrVmzZvLkyVOQGSZOnDhu3DhZC4TYfffdN3369Gg0Kn95AQgokhIC6JNPPsnLy1u8eLFsQAZbsmTJwoULowCQwbZt2zZjxgz5+wtAQJGUEDRr167Nycmprq6WDchs06ZNk5ckAJB51C8r+fsLQECRlBAoy5cvz83N3bBhg2xAxiMpAfAFkhIQHiQlBMfcuXPbtGnz1VdfyQb4AUkJgC+QlIDwICkhIKZPn96hQ4cffvhBNsAnSEq+UFNTs/LNlTePGN6xa6eWOS2bNGmivpd07XDDHTcueX3pvv375A5A4JCUgPAgKcH3Tpw4MWbMmIqKip9//lm2wT9ISplvxWsrSrp0KOrY7vrRwx5aOPPpVc8u2bhCfVdlVVPUoV1xp4teWjZf7gYEC0kJCA+SEvyttrZ22LBhV1555YEDB2QbfIWklMn27dt3x8g78trmj398kkpHTl+qNbdt3tDbbtizd48cAggKkhIQHiQl+NjBgwf79es3ePDgo0ePyjb4DUkpY6mYdOUf+pb1Kn/xvQX2dCS+VJ+yXj0u6XPp3r175UBAIJCUgPAgKcGv1NXbJZdcMnLkyOPHj8s2+BBJKWONvGtkj17liz5dbs9F2i/VU4WlobcPkwMBgUBSAsKDpARf+vHHHzt37jxlyhTZAN8iKWWmqqqqgqI2L7yreTapuHt782vA7QOtTap/btu8xSsWy+EA/yMpAeFBUoL/fPPNN0VFRXPmzJEN8DOSUgaqqakp7VZqf2/S3LXPq3TU4ExD7r7B2kft1b5LiRpBDgr4HEkJCA+SEnzms88+y8/PX7hwoWyAz5GUMlB1dXVJ5xIRk9TX3954SkWj1kW5qmB8qc1ul5eJbkUd2618c6UctP5UVFQ0btxY1maYSCQiq5BhSEpAeJCU4Cfr16/Pycl56623ZAP8j6SUge4ec/ewMTc7JSVrNNImpaGjhw0fcasc1GLs2LGRUxo2bGgUVI3slFTec4iXnjt27DCWraiybI6Ll3lRv0hKQHiQlOAbr776am5u7gcffCAbEAgkpQxUVlb20IKZXpLSY6/MNj5eyfql9u3UtZMcVCdt8cD7RF56Wvt46e9FssZB6pCUgPAgKcEfnn/++YKCgn/+85+yAUFBUspAuXm5T69+zktS0n6pfVvltJKD6oh4oDZXrlwpnqvRPoHjvafZ37rpveemTZvMnqps71NaWmpW2pek3V07e+T0mLNOMcrIKCQlIDxISsggTvf7njlzZvv27b/77jvZgAAhKWWgc845Z+HHy+wRyGNSUvuefc7ZclAdMx4YGjduXFlZKZpKSkrMDq1btzYK2p7W0ax7RW0TacccNGhQ5PQLAlXZqLTuaJbNdGRlXZI5pnZ37exG6/Lly1P9QkTEjaQEhAdJCRnko48+EjUnT56cMGFC9+7df/rpJ9GEgCEpZaC8vLxEn1PK/b8A4E4EGOumNo1oQ5F7gDGIiaxc1iA2zbLxpJB46Gp7aiutrD03bNhgJjRkIJISEB4kJWSKLVu2rFixwlpz7NixW2+99bLLLlN/maz1CCSSUgbq0aPHzEWz7BHInpSanXd2nyF9RbeHFszs0s0xtFi5xBJTVlZW5DTzFnbaBKJ9VZvoY9COaRA9VavZUzSph66qKSwsNDatrWZZu7t2dqMnSSmTkZSA8CApIVOMHDly06ZN5ubhw4cHDhz4xz/+URUsvRBYJKUMNGbMmBET7vSSlLRPMQ0dPeyu0XfJQXXM8KDdtFeaZW2llRlgDC4TuTTZNw3WJ6/cl6Td3aUnr77LZCQlIDxISsgIP//88wUXXFBbW2tsqj9FvXv3vuWWW44dO3ZmRwQWSSkDVVdXdy7tbE9KT7499zdNf6PS0Xktfmt8qfLl114hul3Uqb0aQQ6q4yWWmO/kqaysdH9OSfv+H4MYWTumwaln1DK+dnbt+5S0u2tnN8fhjg4Zi6QEhAdJCRnhT3/6U+fOnY3y7t27y8rKxo8ff/LkyTN7IchIShmopqame/fuDzw13R6Wlpx6HslU3L29aB3/+KTSbl3VCHJQHS9JyXxNnXFnOaNSm1W0r77T3qdBO6a1yd7TOqa2MqK79522p3Z2sxA99XlTy5cvNzeRIUhKQHiQlFD/jh492rx58+uvv16Vv//++5KSkocfflh2QtCRlDJTVVVVcXHxy+8vticll68X3l3QpqhQ7SuHCwFr1EEgkZSA8CApof499thjTZo0eeCBB7766qs2bdrMmzdP9kAIkJQy1ujRo6/oe8WSz2Qccvpa9Ony313ec9SoUXKgcCApBR5JCQgPkhLqX6tWrZo2bfrwww/n5uYuX75cNiMcSEoZa9++ff3797+ib5+FH2g+W0l8vfjegkt6X3p1/6vVXnIgIBBISkB4kJRQz958881mzZpFIpGCgoI1a9bIZoQGSSmTqdgzevTo4uLiR+Y+uvTzV+0ByfiaPGdqUbsi1ZOYhAAjKQHhQVJCPevSpUuTJk3OOuusJmc699xzr7322kWLFh04cEDugyAiKWW+qqqqbt26lXYtHT3x7qeWz31h3QKVmp5d+9LspU+OGD+yc5fOqjWc701CqJCUgPAgKaE+bd68+eyzzzbTkcpLarOsrGzevHkEpLAhKflCTU1NdXX1mDFjysvL8/Pz1T9b9V2VVY2q93inO8DXSEpAeJCUUJ/69+9vBqTu3bs/88wzBKTQIikB8AWSEhAeJCXUmz179px77rldu3Z96qmnCEggKQHwBZISEB76pLR///4HHnjgvvvumwKkzLhx4yZOnChrkUnWr18vfzukDEkJgC+QlIDw0CelBx98cNu2bfJ3A4CQWbx48YIFC+QviNQgKQHwBZISEB76pDRlyhT5iwFAKE2dOlX+gkgNdfExd+5c+awWAGSSefPmkZSA8CApAXAzffp0+QsiNXhOCYAvkJSA8CApAXBDUgIAK5ISEB4kpYDbt3/fkteX3nDHjSVdO7TMadmkSRP1vWPXTjePGL7yzZV8+AnqRFICACuSEhAeJKUge2nZ/OJOFxV1aHf96GEPLZz59Kpnl2xcob6rsqop6tiupEuHFa+tkLsBFiQlALAiKQHhQVIKpj179wy97YbctnnjH5+k0pHTl2rNa5t/x8g79u3bJ4cATiEpAYAVSQkID5JSAO3du/eSPpeW9erx4nsL7OlIfKk+Zb3Kr/xDX8IStEhKSEQkEpFVSAHOczqRlIDwICkF0NDbh6mYtOjT5fZcpP1SPXv0Kh9510g5EEBSqlcBuPxNyiGIQZIyZsBwTtKJpASEB0kpaBavWJzbNu+Fd+WzScXd25tfA24fKFpV/4KiNlVVVXI4hF6Ak1KCF5cJ7q6VtkiQupEF+0Q7duyInKIKosmJGKS0tNS6WSf7GjyKe0dDgrvHJJ1zgaQEhAdJKVBqamradykR702au/Z5lY4anGnI3TeIsKT2Ku1Wyt3wINR7Unq/ZYH9S3aKS4IXlwnurhWGpGTW2JuceO+pFWuyMiU4b4K7xySdc4GkBIQHSSlQVr65sqhjOxGB/vbGUyoatS7KVQXjS212u7xMdFNfJZ1Lqqur5aAIt0xISnXWGMwnKyKW5yusV5DiatK+uXLlyrh319KOqV2n2V9s2nc3qH/F2dnZ1hq7pExktWnTJnNAg6qRnepi5hazENGdZHPxxsLMDhUVFY0bNzY3o66HabS6n3nr4NaydtN+lrzvrmXvY9TEulSkE0kJCA+SUqAMH3Hr0NHDtEnJGo2cktKwMTffPeZuOeiZtH+/tZXqasasFFc28BEfJaWI7jpSWzlo0CBVbtiwofquykalepRWVlYa5datW4tdrGXt7lraMUtKSswOZqV2TOvu1pUoKiaVl5dba+ysu5iTxjpRcmnPp7bSPDNqYeIXiFihdndtjbasrazzLCXrEWJfhlHQPki0cyH9SEpAeJCUAqVT104PLZhZZ1J67JXZxmcriS+1b1lZmRz0TNo/1d4r4TuBTEp1bsaxu5bL7tpKl03t7u5cXnXmMpHLXonTHpH3yjo37WfJejjantrKOjfj2F3LPo59L7Om9BSjrH6r/7sH0oukBIQHSSlQWuW0enr1c3UmJacvtW9uXq4c9EzaywJrpfsrauA7JCV7pXZTS7t7VlZW5LREni2pk/bJXoPLRCmlfarZOrtZ1lbWuenSJDaTNZG2UrupZR/HKDg9SOz9kX4kJSA8SEqBcvY5Zy/8eFncSUnte84558hBz6S9LND+zbZWpvR/qZFSJCV7pXZTS7u7trLOTdHk5dV3VoWFhdZNl4lcJP4+JetEZtl7ZZ2bZtlIiWJ52p7ayjo349hdyz6OUXAa1t4f6UdSAsKDpBQorXJbJ/icUl5enhz0TN7/Zpv/edyoUSPzdfbwnUxISvYv2ekU9wdnnW93cX8XSp27a2nHTMo7cLzc0UH7XheDy0QppT0i7UlO8Cxp/3dG21M7u2gyaH+a3nc3iIhrX4ZRcDn8WEMyko6kBIQHSSlQunQr9fI+pWbnnd1nSF97Upq5aFaPHj3koGdyv9SwMisLCgratm17ZiN8o96TknfaF5uZleIWamaT+YZ7s098u2slOKa1VfT0QntCrE3aiVJKe0TaE6Kt1N4pQXuY5i5W2p7aiaxNyX2EiIhr7m4+X2eM7DKsl5CMlCIpAeFBUgqUu0bflci970ZMuHPMmDFy0DNZ/2abZWsl71MKGB8lpQQl8ii1vyzNGM34jmDgpwkDSQkID5JSoFRXV1/Uqb3IP0++Pfc3TX+j0tF5LX5rfKny5ddeYU9KnUs71/l5StZrBbPsvRK+Q1JKRCrGRH3hpwkDSQkID5JSoNTU1JR26zr+8Un2FNTAori7TFPq64Gnpnfv3l2NIAc9k/vLV6yV1qsKrjD8KzxJCQC8ICkB4UFSCpqqqqo2RYUvvLvAnoVcvl5+f3FxcbHaVw6H0CMpAYAVSQkID5JSAI0aNep3l/dc9OlyeyLSf3224oq+V4wePVoOBJCUUK94OtoXwvZjIikB4UFSCqB9+/Zd3f/qS3pf+uJ7dT+ztPCDZVf07dO/f3+1lxwIICk5qKioEPduzkABuH5NyiGIQZIyZqr54gFm8sUpTSKSEhAeJKVgUrFn9OjRRe2KJs+Zak9HxtfSz199ZO6jxcXFqicxCU58l5TSdtHmfSLvPROUtkiQupEF+0TmuyLNt0TWSQyi/aglF2k7q4L3ibz3TJF6X0CakZSA8CApBVlVVVW3bt06d+k8YvzI2UuffHbtSyodvbBuwVPL546eeHdp11LVynuT4K7ek5L9Y2edPnnWkLaLNu8Tee+ZoLRd06duZME+kVljb3LivaeWSFYJjuad94m890yRel9AmpGUgPAgKQVcTU1NdXX1mDFjysvL8/PzmzRpor6rsqpR9XXe6Q7IhKRUZ42VPS24fFqotdJ7T7O/ddN7T+uHL6mytUmIJLYk7e4GL59empSJrOyfOuV++FpmbnH/6DZz8eKTW+2vanM5TKM1jmPXjum9p9nfuum9Z0wPMG2Ndi5rZ/uOoUJSAsKDpATAjY+S0qBBg9QFXMOGDdV3VTYq1WVxZWWlUTYv70pKSoyC0rp1a6Og7Wm9IrTuFbVdLGrH1C7J+xWndUnmmN4n0h6RQcWk8vJya42d9thjnSi5tKdOW2meGbUwEY3ECrW7a2u8H7v2Z6TtqT3JBrEY7ZjaJbkfkZV9GUZBO5f3YQOPpASEB0kJgBsfJSWDuIazbmrfoGK/WLSWtbsYXC4WXdYgNl0GiXro6TKy2NTu7s77sdd5kpNFe0TeK+vctJ8l++G47G7vHK1rSdpdDPbFmFzWIDZdBonq1mbvb12qudoGDRr8u0f4kJSA8CApAXATpKRkysrKipxmPuGgvb7UvgxJ9DFoxzSInqrV7CmaBGurWfY+kXZ377wfexyDx8d66tx/cNrKOjddmpwqtX20PyPtRN5PsnZMg+gZxwNMFJzmsvcPJ5ISEB4kJQBuApmUrJXaiz/tXoWFhdZNl4lcmuybLrRjaivr3BRNXl59Z+X92F0k/j4l60Rm2XtlnZtm2Qgw2uW57K6t9LIkg/eT7NJk33RhX5tRcJrL3j+cSEpAeDgmpblz504BEG7z5s3LhKRk/5KdLLxcNWrfxKK9ItS+YcMgRtaOaXDqGbW9NUVorHufkveJtEdk8HJHB+/Hrj3JqaA9IrNgPSEJniXvL4rTHrt2du1E3k+ydkyDU8+o7QEmErL9HBoFl7lizdiBRFICwsMxKclfDABCqd6TUqyMZwO07243mS95st4YTXshq31xlPZt9NoxrU32ntYxtczRrD29T2RtFT29cFmny0QppT0i7QnRVrr/4CIO93kTvBy7dnZrT7Osnd19nXX+3LVjGkRCNnuaT/cZ/V3m8pKxA4+kBIQHSQmAG98lJT+yvyzNuDw1vgPIKCQlIDxISgDckJTqEUkJyEAkJSA8SEoA3JCUAMCKpASEB0kJgBuSEgBYkZSA8CApAXBDUgIAK5ISEB4kJQBu0pmUmgBAxiMpAeHhmJT4PCUAmfB5SgCQUUhKQHg4JiX5iwFAKJGUAMCKpASEB0kJgBuSEgBYkZSA8CApAXBDUgIAK5ISEB4kJQBuSEoAYEVSAsKDpATADUkJAKxISkB4kJQAuCEpAYAVSQkIj4AkpUgkIqtsvPRJhHZ8a2VFRUXjxo3/3VaXHTt2qF1EpXYWv1OHqQ5W1ta3mH5eqqf60QwaNEg2ZDa1YLVs98MkKcX0SIiJ/d946uZKg8z8hwwkHUkJCI+AJKXS0lJZZQsVqc4Y2vETWYO2s/ZIk864gG7YsGHarv61Bxu3sWPHRk4xDkFRNbKTB95XlYqeCfI+kXvPACcl9wO38t4zJtphtZX1y/uSvPdMXDrnAqxISkB4xJyUFn22pmj2Lf89pbf6rsqyOZOIv6Op/rOqHT/uNezfv79bt26yNi5ZWVmyyhvvq3XnZQEpSoAJHoL33VPRM0HeJ3LvmQlJKY5fO14ede4HbuW9pwuxJKd/46mYK0Hel5Sif8ha3lcFJBdJCQiP2JLSgk9XNXngqptXjJu69oFpa54496EB2quWHTt2RE4zX4xhrZw1a5ZRqcorV64UPbUitj+KZo3T61XELjHNZe/pflBGf5dKg9jctGnT/40YiaiytUn0NNiP1HjRl7G7UTDWZl1t69atrbs0aNAgOzvbWuNErMHLXPYzE7EswOV4o7bpXMR9CNZNsxzR/bhFH4PL+kVP7TkxiJ4R59m9SMpEoqdQ70lJ/ZI5e3r/Ea9NnvD2JPVdlbW/dqKxP+rcD9xK9NSe9ojuDGuXZPa3bppEfVLm8vJPRjuRIeL5sWS0ihon6VwVkEQkJSA8YktKF868dvCSOyevnmx8TV0zp2j2LbLTmX/AzLL1L/fYsWOXL18ePXXxXVlZKXpqma32gihHHV485n0ua09z2SUlJWYHs9IsqP5mhtFWGux/2rVl+6bJqZsouIysLk3Ky8utNU48zqU9M9oFaCtdapwkfgjWsvbHbfCye52b5vlJ8GGplZSJ3Oet96RU+PhNNyy/2/y1o8qqRnY6RfsD0lZqT5ELcYq0j3ntGdbOrt00pWIuL/9krLvE/VjS1jhJ56qAJCIpAeERW1L6z3svHf/2JPOS5f51DzWa0lt2cviDrf3TZa10f9mGfRztLFaiss7+pjp7uq9BW1nnpkuTlVM3UXAZ2TuPc1lpm9wrXWoS53QI1rK2ss5Nl6ao64PZZUeXvZy47OJ9IvczX+9J6b8mX2b9taPKqkZ2OkX7A9JWajdduPR0n0hbqd00OdVH6xpWW+ldUh5LUVvnBNnHN8W0KiCJSEpAeMSWlJrP6Gd9TumWFeO9P6ek/fOprdSyj6Odxcrl76i2v0nbMysrK3Ka+UyRtqe2UrvZ+PTr2QzWJrFpcuomCtYLhbgvGjzOpT0z2gW4HG/UNl1SiDGtm2ZZW6nddFm/2IzpJUPWzVglZSKXpmgGJKXWjw22/tpRZVUjO50S66PO/cCtRE/tY97axyxrl2Rwmj0Vc3mRlMdStK7WWCVrVUASkZSA8IgtKd2z6vH/b2rvIUvvmvD2JPX9rAf+oH3DgPUvllnW/hnTVmrZx9HOYuXyd1Tb36TtmWCll00rpyanEURh+/btjRo1ipwiLi+8vOLF4HEuazezrF2AGFBwb7VK/BCsZW2ll00rl6bCwkLrpvcxYxX3RC5N0QxISi98/Mb/TLvC/LWjyqpGdjol1kedS5PgcjLNsrZSuyTRR0jFXN7/yRjifixF62q1SueqgCQiKQHhEVtS2l+z/95Vs5vP6Pef9/7+wpnXLvx0texxivavuPZ9St7/ttkvEbSzWLn8HdX2N1lf7x7HW5K0lQYxr/WcWN+NEPV8Xyz72TAK1mumON7bbfA4l/Z4tQtwOd6Y/gs88UOwLlX74zaI3V3WL3pq31ticFqSUFFR4dRklfhEUdemaAYkJeXpDa+c/3Cl+rWjvquybD4t1ked+4FbOT0SrA8kax+zrF2SweO/8aTM5eWfTFIeS0n/h5yUVQHJRVICwiO2pOSR9vUS1krrve/+vZsrc3dx4zXtW3utu5iV1rnc543o7qFkLqDO29xpK7Xr1J4ok7mvQTuC2UcUEnwdTkxzaY9XuwCX4zV3TC4xrHap5qZ1Vdoz4H39Lj1dHpaCS5MpDRNlQlLyKNZHnThFWu6PBPFAMvcyy9olmay7RFM8V528nyjr7IJLU3ySsioguUhKQHikJCklwnpLX5PslCROcxnf6526DqioqJC13lgPoV4OJ6YFqMMU10DpVOfyvDAePO7X3LFKysLcGZfm7hP5KCnF9KgTnH4bJMg6iH3ARP6N27nPlQb1+w8ZSBuSEhAeGZeUMkG9XGQkl/U/YsVLVtKj3hfgXWb+uNVF54YNG2RtffBRUsrAR106l5TOuYAwIykB4UFSAuDGR0kJANKApASEB0kJgBuSEgBYkZSA8NAnpQcffHDbtm3ydwOAkFm8ePGyZcvkL4jUICkB8AWSEhAe+qS0f//+Bx544L777psCIMTWr18vfzukTH0lpciZb1QTm76T+PqTe5+JzKQOUHyEA7xL5DEWjNt+kJSA8NAnJUBp0qSJrAJSJkOSUhz3165TIleWsUp8/drVaiu1vPf0zi9jJigVS0rFmN4fY9rZtZUpkqK5SEpAeJCU4IikhHRySUqLPltTNPuW/57SW31XZdmcmBRdS1mlYYq4ZWVlWTc9fh6uC+89vcvYMcXZS1BSliSkYkzvtLN7D1qJ0y4gcSQlIDxISnBEUkI6OSUlFY3Ont7/T6/dO+HtSeq7KjuFJe2nlFovlcyy2dP6ca5R3YuytGNqufS0TmFs2j/s2PqBTqpsVGrHVCs0u4km+/ojurlc7icecbiyFPXWTZcmU4MGDbKzs2XtmbQHa7BPYT+oWIkxtbNrJ3I5ez49TIOXxUc9P8bMJuumyanezsuqXA5KTOSy1JiQlIDwICnBEUkJ6eSUlAofv2nostGTV082vlRZ1chOp5SUlJhl8xLWeqlkls3WyspK+2Wf06ZoEqyt5kqMz/Zt2LBhxPLBxGpGNa9RNvfSTuR+RPaCKEdjmUu7GXU4BOvTAmZZ29OgLnbLy8utNXbWqeM4gbESO2pPtXYil7OXUYepHTPBxRvEjtp1amc3eT8cL6tK2yk1kZSA8CApwRFJCenklJT+a/Jl49+eZCYlVVY1spONeRmkvTTUVta56X5p5fKaIpcxzb3qnMi+eHtBlMVmrP2tRL3xv/iqsHHjRvf/xfcuwRMYK5d1up8obaV3LgtOw2EmuHiD9zGdpnCqj4/LyXFZj8tedSIpAeFBUoIjkhLSySkptX5s8OAld5pJSZVVjex0SlZWVuQ085ki7WWctrLOTffLu5heAmTdNDQ+/Zo6g1HpfkT2giiLTbOsfUbIIHY3aeu1r4zS9vQiwRMYKzGI+6m2ll3Onhf1e5jaI4qV9zGdpnCqj0+aT2mUpASECUkJjkhKSCenpPTix2/+z7Qrhiy9a8Lbk9R3VVY1stMp2is275V1bnq/zCosLLRuuozpvdK+eHtBlMWmWd6+fXujRo0ip7hfWZpEvXFtum3btnfeecfLCF5eQ2UVxwmMlcuYZllb6XL2fHqYBu+L9z6m0yE41dt5X5UhDac0SlICwoSkBEckJaSTU1JSntmw4oKHr/nPe3+vvquybD5N++4j89rIWqntaXC5tHK/zNK+0cXgMqbJuos5lHad5u72giiLTbNsvdYXS/V47zuX51W0R6d99klI8ARGT91swKnJTvR0P9XWssvZy/zD1B6RwcviDd7H1K4zpifivKwq8VMaK5ISEB4kJTgiKSGdXJKSR+aLcKx3tPNeqX0LuMsLewSXnkaT9l31Ju3u2nU6FbTrN/tYyy45J+q6PPdhDaKnd9ozYG3Szi64NJm0J8r9VFvL7mevTmk7TIMY02V2L7SnzroYsTDtg8H74j1yOSjvpzQmJCUgPEhKcERSQjolnpTSw3o7b5PslNmsC7YvXl1cVlRUiEq/sB9O0rmfvfSor3kTpx5acSS0TENSAsKDpARHJCWkk1+SUgBY/w9evFrJ19RV+IYNG2RtstX72UvPYcIFSQkID5ISHJGUkE4kJQC+QFICwoOkBEckJaQTSQmAL5CUgPAgKcERSQnpRFIC4AskJSA8SEpwRFJCOvkrKVVUVIjbi2cy+00a/LX+cMrMmx/E9MgxPk85jhsh1i/jFn8uh0lSAsKDpARHJCWkU7KSUiRdtwXzPpH3nlred3fqqa3XVtavVCwpwTET3F3L+5jee3oxduzY/3cbitO3+VZUjezkgfdVpaJngrxP5NKTpASEB0kJjkhKSCeXpLToszVFs2/57ym91XdVls1ncrm+SS7vE3nvqeV9d21Pjx8mG5+srCxZlYCkLElIcMwEd9fyPmYcn9fkhfcFaHnfPRU9E+R9IpeeJCUgPEhKcERSQjo5JSUVjc6e3v/21yZNeHuS+q7K7mFJXN9ETn+WaET3ia7WSu89zf7WTe89rZ/IpMrWJi2xu3XTpcm9Mmqr164/Utc5EbfJbtCgQXZ2trXGTjuRIWI7HPvssRJjak++tY99DdZNQzoPU7sALS+rMtgXYC+7rErsrj2lBtEzWeekTkmZSPS0IikB4UFSgiOSEtLJKSm1efzGoctGT1492fhSZVUjO51ivLvAeGWR+daIxo0bV1ZWGmXz0qekpMQoKOa1vran9WrJulfUdiGlHVO7JOuOLldjUYfdrc8zmGVtT4PTFF7WX+c5EYOoK/Xy8nJrjZ32lGrXr53dO+2Y2sXHekrTeZj2GideVmUQY2rPiXVVIg972b3OzUTOSZ2SMpHLvCQlIDxISnBEUkI6OSWl/5p82fi3J5lJSZVVjexk4XK5o30tk9lBe8Gn3cXgciHlsgax6TKISfQx/r9cFTZu3Ojlf8G1lVHn+mhd50Rb6Z33U2rddNnLncuYZjnWU+qFy4JdlmTfK+4FuHBZgJefssumS1NUd3Qmlx1d9nLisov3iVzOPEkJCA+SEhyRlJBOTkmp9WODBy+500xKqqxqZCcLlyshU1ZWVuS0xqfvcGXtaZa9v4xHO6ZB9Gx86oZgJmuTlraP9qVW2p7ayqitXrt+ax+zrH0Gxjvvp1RsxkcM4nLyvZ9SL5J1mO6t8XFZgFnWVmo3XU6p2EzWOalTUiZyaSIpAeFBUoIjkhLSySkpvfjxm/8z7YohS++a8PYk9V2VVY3sZOHlSshaaZa1lVaFhYXWTZeJXJrsm3US/Y2rwG3btr3zzjvuV4EulVFbvXb92srt27c3atQocopYgPcXgBm8n9K4eRkz1lOazsN0b7XyviqXBZhlbaWXTSuXpkTOSUzinsiliaQEhAdJCY5ISkgnp6SkPLNhxQWPXPOf9/5efVdl2XwmL1dC5vsuKisr3Z8/0b57xyBG1o5pcOoZtb33SUvs7vKUjvZgPd77Trt+7TmxJqU47ujg/ZRqDyd66iN9nJrsnA4zallJrKc0PYcZtS3GnZdVGZwWYP3RW9/A475+7Sk1iJ6JnxOPP/rEJ4q6NpGUgPAgKcERSQnp5JKUYmI8P6B9B7/JfHGOcdsro9La0yxrX8ajfWu4dkxrk72ndUwXLkfkPpFJdPO+fu1cLrnCC5fDdzlSwaVJ8HLyraOJkZ1OaZ20E1mbknuYMdEeY8T2o7ffFM79kWPtaTBHM7j0TO45SfVEJCUgPEhKcERSQjolKyn5kfU+yybZKQHq6rCiokLWxsu6tuSu07v6mjed1I9MXOWnU1LOsPFIjiNnukjKwtwZgdBlIpISEB4kJTgiKSGdwpyU/MX6H/bipU3poSLEhg0bZC2SyiUn1KMM+dGTlIDwICnBEUkJ6URSAuALJCUgPEhKcERSQjpNnjxZXo8AQOYhKQHhQVKCI5IS0mn+/PkLFy6UlyQAkEm2bds2Y8YM+fsLQECRlOCIpIQ0W7NmzZQpU+4DEFb33nuvrMokU6dOnT59uspL8pcXgIAiKcERSQmAH508ebJp06bqu2xAZjty5Eh+fv7tt9++ceNG2QYA9YGkBEckJQB+pC64mzdvLmvhB/v27Zs1a1ZxcXHPnj0XLVp09OhR2QMA0oikBEckJQB+VFNT06JFC1kL/zhx4sRbb71VWVmZk5MzZcqU7du3yx4AkBYkJTgiKQHwo127dhUUFMha+NDWrVsnTJjQqlWrQYMGrV27VjYDQIqRlOCIpATAj77//vuLLrpI1sK3Dh8+/MILL5SVlXXs2PHJJ5/khgoA0oakBEckJQB+tHnz5i5dusha+N+GDRtuvPHGFi1ajBo16ssvv5TNAJBsJCU4IikB8KPPP/+8oqJC1iIodu/e/fDDDxcUFPTu3XvFihW1tbWyBwAkCUkJjkhKAPxow4YNvXr1krUIlmPHjr322mtXXnllfn7+9OnTd+3aJXsAQMJISnBEUgLgR+vXr7/qqqtkLQJq8+bNY8aMufDCC2+44Yb3339fNgNAAkhKcERSAuBHb7/99oABA2QtAu3AgQNPP/10586du3Xr9uyzzx46dEj2AIDYkZTgiKQEwI9ee+21IUOGyFqEw/r16wcPHtyyZcvx48d/8803shkAYkFSgiOSEgA/WrJkyc033yxrESY//vjj1KlTc3Nz+/XrV1VVdfz4cdkDADwgKcERSQmAH7344osjRoyQtQif2trapUuX/v73v2/btu1jjz22Z88e2QMAXJGU4IikBMCP5s6de/fdd8tahNg//vGPkSNHZmdnDx8+/JNPPpHNAOCApARHJCUAfvS3v/1t4sSJshahV1NTox4b7du3v/jii19++eUjR47IHgBwJpISHJGUAPjRI488MnXqVFkLnHLy5Mnq6uo//vGPrVu3vueee3744QfZAwBOIynBEUkJgB898MADDz30kKwFzvT9999PmjRJ5aWBAweuWrVKJSjZA0DokZTgiKQEwI/uvffev/71r7IW0Dly5MhLL71UUVFRUlIyZ86cmpoa2QNAiJGU4IikBMCPxo0b9+STT8pawNXHH398yy23ZGdnjxw58osvvpDNAEKJpARHJCUAfnTXXXc999xzshbwYM+ePY8++mhhYWGvXr2WLVtWW1srewAIE5ISHJGUAPjR7bff/vLLL8tawLPjx49XVVX169cvNzd32rRpO3fulD0AhANJCY5ISgD86Kabblq6dKmsBWL3zTffjBs3rmXLlkOGDHnnnXdkM4CgIynBEUkJgB8NHjx45cqVshaI18GDB+fNm9etW7cuXbo888wzBw4ckD0ABBRJCY5ISgD8aMCAAdXV1bIWSNi77747dOjQCy+88M9//vPmzZtlM4DAISnBEUkJgB9dddVV69evl7VAkuzatevBBx/Mz8/v27fv66+/fuzYMdkDQFCQlOCIpATAjy6//PIPPvhA1gJJVVtb+8orr6gHW5s2bR555JHdu3fLHgD8j6QERyQlAH70u9/97tNPP5W1QGr885//HDVqVIsWLW666aYPP/xQNgPwM5ISHJGUAPhR9+7d1cWrrAVSKRqNPvHEEx07diwrK3vhhRcOHz4sewDwIZISHJGUAPiRulr95ptvZC2QFmvXrh00aFCrVq0mTpy4detW2QzAV0hKcERSAuBH7dq1++GHH2QtkEbbt2+fPHlyTk5OZWXlW2+9deLECdkDgB+QlOCIpATAjwoKCnbt2iVrgbQ7evTookWLevbsWVxcPGvWrH379skeADIbSQmOSEoA/Khly5b79++XtUD92bhx4+23356dna2+q7JsBpCpSEpwRFIC4Efnn3/+r7/+KmuB+rZv375Zs2YVFxf37Nlz0aJFR48elT0AZBiSEhxZk1JBQYGlJSFJHAoA7M4555za2lpZC2SGEydOvPXWW5WVlTk5OZMnT96+fbvsASBjkJTgyJqUevfubWlJCEkJQOqoy9CmTZvKWiDzbN26deLEia1atRo0aNDatWtlM4AMQFKCoxS9+o6kBCB1Dh8+3Lx5c1kLZCr1iH3hhRfKyso6duz4xBNPRKNR2QNA/SEpwZGZlK699tpmzZqZ9SrqrFq1qvkpP//8s1lp7WAUVKvRTdvz1ltv/fbbb43y1q1bzZ7mB1BodwcAF+pCMzs72yh7/73EryDUuw8//PCmm25q0aLFqFGjYvroZB7nQOqQlODI6X1KKjUNHjxY1Gt/U7tUzp49+9VXX7W3WsvWyksuucQsA4ATdamXm5trlL3/YvHeE0ip3bt3P/LII23atLn88stfeeUVL++48/7o9d4TgIGkBEdOSUlb7n2KteDUUxXWrVt3//33m03WVms5iW+OAhASO3bsaNu2rVH2/ovFe08gDY4dO/b666/37ds3Pz//wQcf3Llzp+xh4f3R670nAANJCY5iSkpm2V4jys2aNWvevLlISkal4cILLzQqeUkAgFht3bq1Q4cORln7K0j7i4VfQchMmzdv/vOf/6wek0OHDn333Xdl8yk8zoHUISnBUYqSklFwefWdVllZmawCAJuvvvqqa9euRln7K8jK/MWibbXiVxDq0a+//vrMM8+Ulpaqx/a8efMOHjxobeVxDqQOSQmOYk1KyoUXXtizZ09zU9vTLFjv6NC5c2ej8C/L66StL5i2dgAAJ59//nlFRYVRNn/bDB482LwtjfYXC7+C4AvvvPPOkCFDWrZsOW7cuK+//tqo5HEOpA5JCY6MpHT//fc3b978P/7jP5qffsmcNv8YGjRoYD6h/y+H5/Stu5i/oLU9tZUA4OLDDz/s1auXUTZ/h6xatcr8zaP9xeK9Eqh3O3funDZtWl5eXr9+/aqqqnbt2mU8SnmcA0lHUoKjFH2eEgCkzt///vcrr7xS1gKBU1tbu2zZsl69ehUWFs6cOZOQA6QCSQmOSEoAfGfNmjX9+/eXtUBwffHFF3feeWd2dvbNN9/80UcfyWYACSApwRFJCYDvvPHGG4MGDZK1QNBFo9E5c+Z06NChvLz8pZdeOnLkiOwBIHYkJTgiKQHwnRUrVtxwww2yFgiN1atXDxw4sFWrVn/5y1++++472QwgFiQlOCIpAfCdxYsXDx8+XNYCIfPDDz/ce++9rVu3HjBgQHV19cmTJ2UPAB6QlOCIpATAd1588cURI0bIWiCUjhw5smDBgosvvviiiy6aPXv2/v37ZQ8ArkhKcERSAuA7c+fOvfvuu2UtEG6ffvrprbfemp2dPWLEiM8//1w2A3BAUoIjkhIA35kzZ86ECRNkLYB//Wvv3r1//etfi4qKLr300iVLltTW1soeAM5EUoIjkhIA33n00UenTJkiawGcduLEiTfeeOPqq6/Oycm57777fvzxR9kDwGkkJTgiKQHwnenTpz/44IOyFoDNt99+O378+JYtW1533XXr1q2TzQBISnBBUgLgO1OmTHn00UdlLQAHhw4deu6558rKyjp16vTUU0/98ssvsgcQYiQlOCIpAfCd8ePHP/HEE7IWQF0++OCDYcOGtWjRYvTo0Zs2bZLNQCiRlOCIpATAd0aNGvXss8/KWgDe/PTTTzNmzCgoKLjiiiteffXVY8eOyR5AmJCU4IikBMB3br/99pdfflnWAoiFCkgqJvXp00dFpoceekjFJ9kDCAeSEhyRlAD4zo033rhs2TJZCyAuX3311d13392iRYsbbrjh/fffl81A0JGU4IikBMB3Bg0aVFVVJWsBJOCXX355+umnO3fu3L179+eee+7QoUOyBxBQJCU4IikB8J3+/fuvXr1a1gJIhvXr11933XUtW7YcP378t99+K5uBwCEpwRFJCYDv9OnT5+9//7usBZA8P/7449SpU3Nzc6+++uqqqqrjx4/LHkBQkJTgiKQEwHd+//vff/TRR7IWQLLV1tYuWbJE/Ytr27btY489tmfPHtkD8D+SEhyRlAD4To8ePb744gtZCyBl/vGPf4wcOTI7O3v48OGffPKJbAb8jKQERyQlAJnv66+/tm527tzZWiNaAaRITU3N3/72t/bt21988cUvv/zykSNHZA/Ah0hKcERSApD51MXZu+++a24WFxf/8MMPRlnVq1azCUCqnTx5srq6+o9//GPr1q3vuece8x8j4FMkJTgiKQHIfHv27GnVqpUZlvLz841PyVQ1qp73TgD14vvvv580aZLKSwMHDly1apVKULIH4AckJTgiKQHwhVtvvfXcc881wlKLFi2i0agqn3feeYMGDZJdAaTRkSNH5s+fX1FRUVJSMmfOnJqaGtkDyGwkJTgiKQHwhS1btqjfV7/97W9VQGrevPm6desuuOACVbNp0ybZFUB9+Pjjj2+55Zbs7OyRI0dyzxX4CEkJjkhKAPzi0ksvbdq0aYsWLc4666yWLVued955paWlshOAerVnz55HH320sLCwV69ey5Ytq62tlT2ADENSgiOSEgC/WLdu3bmnXHDBBVlZWeecc86qVatkJwAZ4Pjx41VVVf369cvNzZ02bdrOnTtlDyBjkJTgiKQEwEfy8/ObnKbKshlAhvnmm2/GjRvXsmXLwYMH/+///q9sBjIASQn/Jj54RCQlPpYEQCZ75plnmjZtqn5xRSKR5557TjYDyEgHDx589tlnu3Xr1qVLF/Wv+MCBA7IHUH9ISvg38bEk1qTEx5IAyHBHjx4977zz1C+urKwsVZbNADLbe++9N3To0AsvvHDMmDGbN2+WzUB9ICnh3/bs2aN+Q5lhyUxKr732Gh9LAiDz3XnnneoX17Rp02QDAJ/YtWvXgw8+mJ+f37dv39dff/3YsWOyh82aNWtkFZAkJCWc4dJLL23evLkRloyk9NJLL0UikZEjR8quAJBh9uzZc/755/PfOoDf1dbWvvLKK5dffnlBQcHDDz+8e/du2cPiqaeeqqqqkrVAMpCUcIb3339fBaQLLrhAhSVVUDGpadOmZ5111pYtW2RXpNeaNWsmT548BYCr4cOHyyoAp9x3333Tp0+PRqPyD0wG+/LLL0eNGtWiRYsbb7xxw4YNsvmU/fv3Z2dnb9y4UTYACSMpQWrTps2555574YUXqqSkYlL79u0rKytlJ6TXkiVLFi5cGAUAIAHbtm2bMWOG/BuT8dTKn3jiiY4dO5aVlb3wwguHDx8WHf7whz+osLRjxw5RDySIpATpueeeM94SbTyb1KFDh3Xr1slOSK9p06bJP3cAAMTO12/kW7t27aBBg1q1ajVhwoStW7ea9e+99566dGnbti23zkNykZSgcf755xufSVJeXt6tWzfZjLQjKQEAksLXScmwffv2KVOm5OTkVFZWvvXWWydOnFCVubm5Z511Vo8ePY4fPy53AOJFUoLGhAkTjKR08cUXz58/XzYj7UhKAICkCEBSMhw9enTRokU9e/YsLi6eNWuWOq5mzZqpsDRw4EDZFYgXSQkaR44cOfvss9u0aZOfn8/HkmQCkhJSraamZuWbK28eMbxj104tc1o2adJEfS/p2uGGO25c8vrSffv3yR0A+FNgkpJp48aN11xzTSQSMT57Wn0fO3as7ATEhaQEvWuvvVaFJT++7zOQSEpIqRWvrSjp0qGoY7vrRw97aOHMp1c9u2TjCvVdlVVNUYd2xZ0uemnZfLkbAB8KUlLav3//448/XlBQ0Lx5c+O1MIazzjprzpw5sjcQO5LSv82fP//ee++dhlPGjh177rnnTpw4UTaE1ezZs2tra+WDJl2mkZSQGvv27btj5B15bfPHPz5JpSOnL9Wa2zZv6G037Nm7Rw4BwFempTEpHT16VCUZ+Qc1GW677bauXbs2a9bMGpCsVNOIESPkboCD+++/f/HixfIRTFIyrVmzhrswC6tXr5ZVIbZly5bR/397ZxtjV3HecX/gS6M2q1Wl1GrxldLIqYTZNVm/BAub9foFBSiJiVEUVlWLSIHSNEpxbO9Si6TAbuwGJykleFtCZJKQBmNMtq3YTYUTpyjKiyWUpF+Q8hX8MWbvN8inPt05nsw+z//MmXvvOWfPWf9/ulrNeWbmmTlzz9x5/nvepqZW61rEE1RKpAJEJh38xF1779j/nZ+esepIfaTM3jv23fbx23/zm99oR4SQ9nCiLqX0zjvvHDlyRFZP3QNCGsnZs2dfe+01dRhTKWXMzMwsLS3pMSMkQH7un3nmGX3o1AKVEqmCzx353L479p/9xbzVRfAjJUUs3ffZB7QjQkh7qE0pzc3NUSaRFiFC4Pjx4+owplLKmJ2d1QNGiOGJJ57Qh04tUCmR0llcXLxh64ee/wk4m7R9z43+8xef/cswS8qPbBl96T9f0u4IIS2hNqXElYu0Djs7qJQyqJRICidPntSHTi1wvSHlsrS0ND4xbu9NOv2jb4s6WreST03fH5aRWjfevIMn4QlpKTYWrAiuXKR12NlBpZTRWKUk4cj58+ePTh2d2Dtx/ejI+vXrR0ZH9uzdMz09LXYGKzVDpUTWBvLrsWPXDiWT5POv339WpNGmrSOScB/ZnPjYXlVs603bFv57QTuthVtuuWV4eFhbV5UGdomQCDYWrAiuXBYX1EkIJ4HcyHJQJ6GdBHgS5jGoawJ2dlApZTRTKS0sLuwc37X9pg/bR/feP/2gBDq7J3YvLi7qaqQyqJTI2mD64ekHHv7bPKUUSiOolO6beuDvDn1GO13JpUuXOleQtM4eAHGoTSs5duyYa/eaa65xCbHoQqVS2CVPeklCKsLGghXBlUshAZuEbRK8SQhn38cgwZ6EfBL46WqkRuzsoFLKaJpSunz58qHDhzZvucFeHhN+vnDqsbFtY0enjkp57YJUAJUSWRvs3bv3y2eetD8pVik99R9zbjkPP1J35+6d2ulKQkkwoDzYuHFjuJnuLb3kgKQ3lF6SkIqwsWBFcOXySJAmoZoEbBK22R9e/5GQTwI/Cf8Y1K0WdnZQKWU0SiktP7r3YPqjez9y4NZP3v1JzqsaoFIia4OR0ZFv/PBb9vfEKiX4kbrXXX+ddrqSUBKMj4+7BDzRVGjctGmTMzo6K8XGG2+84UtKOsxSJWVzYWHBlYQNeWN6SV8+3BywZAe1TkhZ2FiwIrhyOSQ8kyBNQrXEoE7CPwkCGdStCnZ2UCllNEopPXT4ob09Prr31gO3TU1NaUekbKiUyNpgw4YNL77+PftjkqiUpO61G67VTleiJIE1+nS6sXAzkiUMDw9PTk6qrB07dvgCXpLBkqG3sFbXNAR93nPPPZ0rFwRK2hlh52HrhJSFjQUrgiuXQ8IzCdJ6CuokCJRQUDsi1WNnB5VSRnOU0isLr4xu2Qwf3Rv5SPkt27bwnqWqoVIia4PR0dFBzymNrDjPY4EhPhQG6cbCzUiW2vSnuULircMqDrizjkgf1CZsPdIoIf1hY8GK4MrVXb43ScKzPoI6CQUlINTuSMXY2UGllNEQpbS0tLRzfCe8NynyhhP3eXTu8Yk9E3xwSqVQKZG1wb59+548+7T9GbFK6U/ef+3HP3WXKvblM0/ePFEQwbtwXw7dzjKhUaWhMVQISi0osTE8POyaCBtyxDcdGzdu9HX9I+zCkj4Nr5RTZRzQp0OVDDd9WpUhpFxsLFgRXLkkJJPATMIz+2N7riiuk1BQAkIGdTVjZweVUkZDlNKr51/ddtN2NVtS3nDiPjfdfNP58+e10zKAK3dovEqek0ulRNYGDz/88KHPH7a/IVYpwVNM9009cGTqiHa6kkINEDe+9dZbQ0NDTmzEZQn8dXKklIStQ2PI2NhYuBlpKJKlNmHrhJSOjQUrgiuXhGQSmNlf2sS4TgJCCQu1U1IldnZQKWU0RCn9/ZGHJARRUyXxDSfy+cyxz0oApJ2uJPz/a/q9wnDljiz5ecB/ykJj2M/maDAqJbI2kPV71/gu+xvy9VdPv++P3ye/MO//sz91H0l/7K/uVMU+vPPGwn/K+PtzJicn4+dqoDFUSvEnOoS58duH1KYjvZ/w7iNHXpdCn45Il+CAEFI6NhasCK5cEpJJYGZ/aRPjOgkIJSzUTouAr0mAxm5OAHY1Y2cHlVJGQ5TSrold9tG9dgrBGXVu+ZKYffv2aacr6aCFuRBYUhlhGQVsPd246lApkbXB0tLSnj17vvTsSfsz4n5hPNv33KhyHzn16PjE7sJrQvwC7B7jpoydov+VwKvv4EMRYHVHJ+E3CvYzLOnTsKF4l0KfYZYtGfpUVQgpFxsLVgRXLgnJbFB3Ljmuk7oSFmqn+aS8UEEZw01Y/mrDzg4qpYyGKKXrrr/O3mZtZxR8w8m55dusR0dHtdOVwFkBV2u42EOjQ23CR/eGZXw6NPqQCJZcdaiUyJphcXFx+/btL/zsJftLEvk8/5MzH9o6VsPDY5r5C0DIGsDGghXBlSv92Tkwrkt5H0MYv8XPdUMjDMCuZuzsoFLKaIhSunbDtfbRvXZG5X2k7oYNG7TTlcBZAa8qgReQQKMjMv18utDogf1cdaiUyFpiamrqzrvuPPdL/UuS9zn7i/mPfOzWo0ePakcVEFn+CSGDYGPBiuDKVfP7GCJhWJ6xOfFVQ7Czg0opoyFKKfGcUt4n5ZxS4X1KfhbB6QeNhZvx6qqiw/dzaGioOXESlRJZS1y+fPnuu+++866Pv/hzsJarz3d+eua2A7fzJdeEtB0bC1YEV670c0rwk3JOCYZVcBMa3f+k+E157OygUspoiFJKvE8p79PrfUoe+ExbOP2gEW6GkixeXVVUxhtuuGHLli0rM1cNKiWyxhDZMzU1tX379n8+/S8v/+9/2V8V95n5t+Nbt22VkpRJhLQdGwtWBFeu9PuU4CflPiV4S6cjHlyFnFh+nYN6pOfViZ0dVEoZDVFKkWffhTMKvuHkXNqz7+AkKRQwcWPKpjVCn7xPCcL1hlTK4uLixMTE+O7xqS9MPzt/+vn/OSOq6Zs/+ve5l79+6JHP7bp5l+TWcG8SIaQGbCxYEVy54s++K4zrUp59l/5CBWgMxRUsf7VhZweVUkZDlBJ8n5KdUXn/ikh5nxKcCfDuo3SjQ3mGj+6F+ifduOpQKZG1ytLSkvx6yLq+f//+zZs3r1+/Xv5KWixiL3zSHSGkLdhYsCK4cuW9Tykxrkt5n1L6CxWgsZmx1ipiZweVUkZDlJKEIzvHdz5y6tFwqiS+4eTRuccn9kwUBjRwJsAn2qUb48/J7aDn6RUaO42cvVRKhBBCWo2NBSuCK5eEZBKYSXimAraUuE5CQQkIC4O6Aa++gwHY1YydHVRKGQ1RSsIrC6+Mbtn8/E/OqHm1LsC+4UTKb9m2hZfHVA2VEiGEkFZjY8GK4MrVXb62WcIzG9TF4zopL6GgBITanaGZ/1ZuL3Z2UCllNEcpCQ8dfmjvHfvP/mLeziv4kZK3HrhtampKOyJlQ6VECCGk1dhYsCK4cjkkPJMgraegToJACQW1IwRfqFAudnZQKWU0Sildvnz54CcOyjz5zk/BPyHUR8p85MCtfHRvPVApEUIIaTU2FqwIrlwOCc8kSJNQLTGok/BPgkAGdauCnR1UShmNUkrd5Xl16PChzVtuUPcsqc8XTj02tm3s6NRRzqh6WEWldPr06VlCCCFkAJ577jkbC1YElZJHgjQJ1SRgk7DNxnL+IyGfBH4S/jGoWy3s7KBSyphtmFJyLCwu7Bzftf2mD//11ANffvHJb/zgmzKR5K+k759+cMeuHbsndvPepDpZRaWku0IIIYT0jo0FK4Irl0ICNgnbJHiTEE4FdRLmSbAnIZ8EfroaqRE7O6iUMpqplLpXHt17dOroxN6J60dH1q9fPzI6smfvnunpaT66t36olAghhLQaGwtWBFcuiwvqJISTQG5kOaiT0E4CPAnzGNQ1ATs7qJQyGquUSKOgUiKEENJqbCxYEVy5SOuws4NKKYNKiaRApUQIIaTV2FiwIrhykdZhZweVUgaVEkmBSokQQkirsbFgRXDlIq3Dzg4qpQwqJZIClRIhhJBWY2PBiuDKRVqHnR1UShmilPgUZhLnueeeo1IihBDSamwsWBEn+H4L0irgM/SplDJmeU6JJLCKSonrDSGEkAGBsWBF8H98pHXY2UGllDFLpUQSWEWlpLtCCCGE9I6NBSuCKxdpHXZ2UCllUCmRFKiUCCGEtBobC1YEVy7SOuzsoFLKoFIiKVApEUIIaTU2FqwIrlykddjZQaWUQaVEUqBSIoQQ0mpsLFgRXLlI67Czg0opg0qJpEClRAghpNXYWLAiuHKR1mFnB5VSBpUSSYFKiRBCSKuxsWBFcOUircPODiqljFm+T4kUwfcprQE6nY42reSWW24ZHh7W1lZx6dIl2QttLQM1eoWDOTiDNwG/UDHKKCljzQy4a7JT4uGee+7RGYbaGkpB/Ig3+40MTqN2szbgeEJjiI0FK+IE329BWgV8hj6VUsYszymRBK4epTRg2FEbvfYzpXxKmSZTXf+V5/Hx8XAzQt9d6rtiCHQCjYMQOkxxnj56ENVEpMX0hqATaIRUUVLh9IywsLCgshq4mwOS3hAsCY0OGwtWRP0rFyEDYmcHlVIGlRJJoYFK6ewvL2yd+/R7Zw/IX0nrbMTGjRu1yRBZZRtFr/1MKZ9SppCUQY7Qd/W33357YmJCW0ui75Gpv2IIdJIeWCcStgJbLBfVRCktQifQCKmipMJXnJyc7PusIGwdGiHpJQckvSFYEhodNhasiMjKRUgzsbODSimDSomk0DSlJNJow8nJIwvHH/vBrPyVdJ5Ykqiic4VNmzY54xtvvOGNkg7LR1ZZT+jTRy1hRZ/uLP8P2Ja0xjyftqTPCjfhHnmfzklYHqLKpHcJDnIHDQj0CavH96hTNCDdnMLQCMkbPXtVW+jz6aefDrPCip5169Z98IMf1NaV+HY7RZ2HRkcHtd7Nt1sSu2rTHdT/btHo+ZJ51V1WZNOT2JADOlHG9Oqd5M6nE1YM0/HdTDkalbGU3UyhlIZUyYjRYWPBishbuQhpLHZ2UCllUCmRFJqmlMZOPfjA/MMzP5xxH0mLRRdaJlw1fRoa3TXu11xzTafoqv2w+o4dO6zRpyWImZycdGmvAaCxsHq8n7C6dy5OItfue0In3WDXujmdj48nNEKfsGShMXTVNZ3vJrSlPCgio6fa8iWFY8eOzc/Pd3O+Jodoj/3794cWS/pBAo1w05Nnt6R0FXYAHieFmwNWV0RK+q8+8jX1XT298+nAUYKbvR6NEW9972YKpTQE24VGh40FKyJv5SKksdjZQaWUQaVEUmiaUvqDmY8+8uqjXilJWiy60DIwwoBGuAmB1y9BnyUaVaORbsPqKfsVKRP3mW4MiZeERjjyDtiEJ8WDAnYgZTMkkhUHtp5uhJuePHt/wA5AY+HmgNUVKivy1UMnfVcPN+PTNp0qBgQaS9nNFCJV0htK2aMQGwtWRN7KRUhjsbODSimDSomk0DSltOmpe+89d9grJUmLRRdaJlxZfXr4yu3RDl+gG11lPfC6kbCiT5doVKgsuEfQZwRVZuPGjd7h8JWTKtAnHGRYEvqE1eEewZF3+DIe2FbEgyJ0qJzHN0MiWXFg6+lGuOnJs/cH7AA0Fm4OWF2hsiJfPXTSd3XozRHJihNWjDcXaQJmVbGbKZTSEMyCRoeNBSsib+UipLHY2UGllEGlRFJomlL69uuLf3jiwKdePvL5Vx+Vv5IWiy60zFtvvTU0NKTW48hSGsmCjI2NuURY0adLNCpUFiwJfUaI+IRd8unCQR6wOsSPvMOWh22FKA+KSPX4ZgjM6vuStnQj3PTk2S3ldrVwc8DqikhW4cGTZ3TEq0cqRrLiVDcg0Ojoezd7pe+GYBY0OmwsWBF5KxchjcXODiqljIYopUvoRSiR37v2UvP7TMoaw6YpJeHZn89/4KuTv/f47fJX0jr7CmEU7q/gDy/lL7zdxRK/ASa8rSW8wh7e6mOrh+lIZ1QW3KPInTaQPJ9hddhPOMhwQKBPWB3uERx5h332HWwr4kEBqzvyBqob3BnigN9gymMS+jtIVHOw9chVT5aUrsIOQGPh5oDVFSor8tVDJ31Xh94cNktWBGu0+DKT5tl3qnqvR2Ppu5m4R4M31M3JgkaHjQUrIrJyNQEYca0lIsdAPdQc6ZWCnR1UShkNUUrwsO5pRe8beAtppcCdHYSIw/QxjDjpNlIpJQKv7Ipc+OGy4kcCrO6N4aPS/GZYEhqhz07+l6L6CavDLkHgLIDVQz8+HR/ksDo0xqt30B6FRo936IBtxT2EwOrxgeqYp42prykd326naPehEfbT0YkeCX0AOxC24tOwV+nV4aa6SjPyAAPYUJgVH6j06qpiCMyCRoXfzYXgfUqFu5lyNKrWq9tNRXUNQaPDxoIVMfjKVSmRIUphdatDlM8qmnCke04vmUjosHTnXTQ7qJQyIkrp268vbnrq3t+f+ejYqQfzHsFcCvafwX3T98tYyjrsUjqQrl4SKaXzcSftVUqD/LiED6r26EJRYHlorIfB9wgSOunD4YDVPZf6+kdpRWPSTNr4n06F+4L6EJ+9Um5DTtXAQwsaa6Pc3XTUsEdwPKExxMaCFRFZuSSaGv3afRJZyd9KI6s8Bo+4IiOcwoDVIcpnFU040j2XHukNDQ2NjIy4dHo30rGzg0opI08pff1n3/P3gfzN/D/kva8G/lsI/k+rg/5F6rPCTYd9TYT/p5qPbJyfsDl1Ej/l0hGH6kNKW3B/fQfg22A8HbTLkJRdyPNmxxD235HnxNFepQS/ndqAowqNrWbAQR6wOiHtRX6lL168qK1tpsl7ZGPBishbuSSO+qN/usvfYStpGFl1cxZraOwEC4pPRyKQsLwj3W3epo3u0qtDoE/YT19ebdrqjpSYqpSGXK6y5JHSKwnnDh48KEK3G3iGXYW9ihwSDjs7qJQy8pTSB746GT5b7PDCF7fOfVoXypkM8Drp8LL7sJbd9OQVUwnYB0fK7ciOxLbgpdWwA9AYseSRsgsRb3n71S16hYWivUqJEEII6aJYsCLyVq7Rr92nntoqFl1oGbhYlxKB2IABFoZGGC2k31QJq0OgT7j70Gck4Ow1popHSpGGoCWP9F6Ff8NEmIa9giVD7OygUsrIU0rvefz28H01j/3gi0OzB3ShnKGH30FoVCclYfmusVv/6ohR6Z5IbCsEZsWNEcsgRLyprMjp4IiTLpUSIYSQlmNjwYrIW7nS3wQYWawdfskeX8al161bp3JV2m4qS0oME9nsozokUh0aI5uwepzI4EcasrX6aDqC8zYxMfH222/HxzndGGJnB5VSRp5SGuScEvwOoNGRl5V3RKoEvB28VxLbgm9ogR0YRm+D8VjLIES8qSx4otYRcdKlUiKEENJybCxYEXkrV/o5JbhYwwikawKVbjQCUZvKYl2pdHyzj+oQWD1v98MydjOlOQUcfEekIUs8t1e8N9cxZVQFrDFySDjs7KBSyshTSs/+fD7lPiX4fcDvABodeVnKbv27BHwZiyPlhKYjsa2wmE/DDiiHinhuSMouRLxFsuKvsFBQKaVgbwwri0t9PauAkJayBp48QRqIjQUrIm/l+v/7lL4U3Kf0pdz7lELib+0L0zZhsVlxVyod3+yjOgRWh8bCTZWVElOFxCOl+L7Ec0NSeuW9bdq0yUcacE8LjRA7O6iUMvKUkvD8698vfPYd/D7gfUqRLynvSSx5R6RKwJexOFJuknMktuX99/c2GEdPJ75SdkF1PkRlwct8HREn3fYrpfjelUh6Q+kluzmFoTGdAatDqvDZaqoYkCp8QqpoKN1nesnBqbMtsorYWLAiIitX4rPv4GINIxCHCrUjEYiNuMLj36d9wral5kt4V4y9T6mwOgT6jOy+8gn3yJESU8HBd0QaUlQX6Y2MjEjMqYxhGhojh4TDzg4qpYyIUkoBnqMMjeGz735XzaBy4Z1zvoxKwIvf0umpLb9r/b0NxuErloU6qVriG0U8DVRKssZsnfv0e2cPyN/IeuPolD3meaQ3lF7SLmyOdA+QAatDqvDZaqoYkFJ8przPoJSGFOk++/gx75v0XpFWY2PBioisXInAxRpGIA4VasPqHlUXFo60paIFX6a/6pABfYa5qmQKcEDCLNiQIpLVH3CnYFfTS4bY2UGllDGgUiqLSwNcXASPiTrpqQMtvaqkaUpJpNGGk5OHF774j+cfl795V4d61PfSif4Kh8b0kr58uJleMvIET1XSk+IhLKPKQ7cp/9lK36kOGr10YEPQ2EG72UGth9X9/3Hg0DkaNSAO5RO2DhsKS/r/L0b2vbPaRwjsAKTOXpH2YmPBishbuRrCpQEiLkv6PLWEvz+e7mA+m0AbIz07O6iUMhqilAYBLv91suodqIGmKaWxUw/ePz/t74uVtFh0oWXgubXwzH7nyi8yPOEOS/pE15zFDrO6OT5hl8KKyona7PbiAZ7whNUdPV0t3R3sCaqFwIbgbkIjbD2cofDaYNXPRg0I9AmPMdgQ3E1ohA056hwQa8mjzl6R9mJjwYrIW7nWJFXMkSp8kjh2dlApZawBpURq4IknntCHTi3krTfpz1p1qJ/dcBNe5OMLhCV9GlZxRH7fI31Qm5GskEgxn3YyXhK/+tWv4v9HTyd99wvHOQ6sAnez0Ohdwb2G1dOB/XSUOyCOSA/T9x2WjPS2JyK7FmnC1uq7AxDr39NTr0h7sbFgReStXIQ0Fjs7qJQyZmZmlpaW9IAREvDrX//6mWee0YdOLeStN5ueulc9a1UsulBAJBLywCeQhiV9Ov0yHujToUoO5z/BU2160j3Aa5Py3BaSvvt9N+GADYU+fbrQ6IHGyNClAPvpUN76cG5RTuAxBhuCJxgj+w6dpFDWgMRze6WsXpH2YmPBipibm5N1UzdPSFMRIXD8+HF1GFMpZVy4cOHFF1/UY0bIFeTnfmpq6t1339WHTi3kKaXnX/++f4q9/JW0WHShgJRIKDT6NDSGpD9CNJJlN0PyslI8uOjwzTff/PGPfxyPDh0pVzGFpO/+gMSfk1to9KQbHQ0ckIjP+L73+j4DmFXngMRzQ+rsFWkvtSmld95558iRIxRLpC2cPXv2tddeU4cxldLvkAE6QUgOc3Nzv/3tb/VBUxcncpSS8OzF+Q98dfI9j/+5/JW0zl5JSiQEn0AKw1B4Z4hDeYY+HXklu+bep8Rn30EP8DSCAw4CPPukSN992ER3+W7XvKwQ2BD8Rnwi77vzwPuU4NA5GjUgjrzvvXDfe32fAXRSz4B0zeEap7ZekVZzoi6lJLz77runTp3SCyohzWNmZuaFF17QRzCVEiGt4ES+UuoJd2oFPvzA4y/OCZ9AGpb0aXgZD7w1HPoMs2zJ0KdH1XWkeAgrKieqejqwoTArPs6OSJYHNhQ35n13nrC6f/Yd9JlOpHq5A+JQPtP3Hcrm9M6nk+6zg/rpiGT1Rym9Iq3mRI1KiZC2Q6VESAsoSym1nUulPtS1CTAYVdQwIGETNTQ3CG18xi5pPlRKhKRDpURIC6BSWpNIHHzx4kVtvYqpZ0DCkyrq8jNCrgaolAhJh0qJkBZApUQIIaQUqJQISYdKiZAWMDMzo9c6QgghpHeolAhJh0qJkBbw3e9+l0+xJ4QQMiBvvvnmV77yFb3GEEJyoFIipB1cuHBhZmZmlhBCCOmL48ePnzx5UvSSXmAIITlQKRFCCCGEEEKIhkqJEEIIIYQQQjRUSoQQQgghhBCioVIihBBCCCGEEA2VEiGEEEIIIYRo/g9QZ/ouXMSSvAAAAABJRU5ErkJggg==;" vertex="1" parent="WIyWlLk6GJQsqaUBKTNV-1">
            <mxGeometry x="-300" y="460" width="1123" height="471" as="geometry" />
          </mxCell>
        </UserObject>
      </root>
    </mxGraphModel>
  </diagram>
</mxfile>
